<svg width="385" height="84" viewBox="0 0 385 84" fill="none" xmlns="http://www.w3.org/2000/svg">
<path d="M357.454 83.7282H344.526L353.637 63.1648L335.416 22.2117H348.431L359.048 47.884C359.419 48.7814 360.691 48.7797 361.06 47.8814L371.597 22.2117H384.699L357.454 83.7282Z" fill="#121715"/>
<path d="M318.186 65.5944V32.6237H309.423V22.2119H318.186V16.5721C318.186 11.4241 319.748 7.37504 322.871 4.42502C325.995 1.47501 329.957 0 334.758 0C337.708 0 340.224 0.318139 342.307 0.954415V11.453C340.919 10.9324 339.299 10.6721 337.448 10.6721C334.845 10.6721 332.965 11.2505 331.808 12.4074C330.651 13.5064 330.073 15.3863 330.073 18.0471V22.2119H342.307V32.6237H330.073V65.5944H318.186Z" fill="#121715"/>
<path d="M298.789 15.0971C296.765 15.0971 295.001 14.3741 293.497 12.928C291.993 11.4241 291.241 9.63093 291.241 7.54857C291.241 5.4662 291.993 3.70198 293.497 2.2559C295.001 0.751965 296.765 0 298.789 0C300.929 0 302.723 0.751965 304.169 2.2559C305.673 3.70198 306.425 5.4662 306.425 7.54857C306.425 9.63093 305.673 11.4241 304.169 12.928C302.723 14.3741 300.929 15.0971 298.789 15.0971ZM292.889 65.5944V22.2119H304.776V65.5944H292.889Z" fill="#121715"/>
<path d="M272.191 65.5941V0.520264H284.078V65.5941H272.191Z" fill="#121715"/>
<path d="M258.764 66.1146C253.905 66.1146 249.914 64.7842 246.791 62.1234C243.725 59.4048 242.192 55.5004 242.192 50.4102V32.6233H233.429V22.2115H242.192V10.1511H254.079V22.2115H266.313V32.6233H254.079V48.0675C254.079 50.7283 254.657 52.6371 255.814 53.794C256.971 54.893 258.851 55.4425 261.454 55.4425C263.305 55.4425 264.924 55.1822 266.313 54.6616V65.1602C264.23 65.7965 261.714 66.1146 258.764 66.1146Z" fill="#121715"/>
<path d="M188.938 65.5943V22.2117H200.824V25.3827C200.824 25.9189 201.554 26.156 201.909 25.7542C204.559 22.7563 208.333 21.2573 213.232 21.2573C218.438 21.2573 222.516 22.9926 225.466 26.4632C228.473 29.876 229.977 34.4456 229.977 40.1721V65.5943H218.091V42.1677C218.091 38.9863 217.425 36.528 216.095 34.7927C214.765 32.9995 212.885 32.103 210.455 32.103C207.563 32.103 205.22 33.1442 203.427 35.2265C201.692 37.3089 200.824 40.3746 200.824 44.4236V65.5943H188.938Z" fill="#121715"/>
<path d="M174.139 15.0971C172.115 15.0971 170.351 14.3741 168.847 12.928C167.343 11.4241 166.591 9.63093 166.591 7.54857C166.591 5.4662 167.343 3.70198 168.847 2.2559C170.351 0.751965 172.115 0 174.139 0C176.28 0 178.073 0.751965 179.519 2.2559C181.023 3.70198 181.775 5.4662 181.775 7.54857C181.775 9.63093 181.023 11.4241 179.519 12.928C178.073 14.3741 176.28 15.0971 174.139 15.0971ZM168.239 65.5944V22.2119H180.126V65.5944H168.239Z" fill="#121715"/>
<path d="M148.06 65.5943V42.428C148.06 35.5447 145.804 32.103 141.292 32.103C138.689 32.103 136.607 33.0863 135.045 35.053C133.541 37.0197 132.731 39.9408 132.615 43.8163V65.5943H120.728V42.428C120.728 35.5447 118.473 32.103 113.961 32.103C111.3 32.103 109.189 33.1442 107.627 35.2265C106.065 37.3089 105.284 40.3746 105.284 44.4236V65.5943H93.3975V22.2117H105.284V25.4139C105.284 25.9473 106.002 26.1823 106.352 25.78C108.978 22.7649 112.469 21.2573 116.824 21.2573C122.548 21.2573 126.859 23.6203 129.757 28.3463C129.986 28.7191 130.548 28.7133 130.775 28.3397C132.028 26.2803 133.77 24.6425 135.999 23.4265C138.544 21.9804 141.118 21.2573 143.721 21.2573C148.869 21.2573 152.861 22.9637 155.695 26.3765C158.529 29.7892 159.946 34.4745 159.946 40.4324V65.5943H148.06Z" fill="#121715"/>
<path d="M75.8439 28.5544V5.05273C75.8439 2.53077 73.7979 0.520508 71.3136 0.520508H47.8228C44.133 0.520508 40.4797 1.25148 37.0821 2.64039C33.6845 4.06584 30.5792 6.11267 27.9854 8.74428L27.8027 8.92703C24.3686 12.3993 21.9208 16.7122 20.6787 21.4637C22.9072 20.8789 25.2087 20.5865 27.5103 20.5499C33.6479 20.4768 39.676 22.4505 44.5714 26.1421C48.9919 29.4316 52.3529 33.9638 54.1796 39.1905C56.0793 44.4902 56.2985 50.2652 54.8737 55.7111C59.5865 54.4684 63.934 52.0196 67.4047 48.5839L67.5873 48.4011C70.1812 45.8061 72.2635 42.6993 73.6883 39.3001C75.1131 35.901 75.8073 32.246 75.8073 28.5544H75.8439Z" fill="#18E299"/>
<path d="M19.9777 28.1572C20.0141 20.9475 22.8893 14.0292 27.9483 8.85864L8.40378 28.4121C8.33098 28.4849 8.25816 28.5213 8.18537 28.5941C3.41754 33.3277 0.542361 39.6635 0.069218 46.3634C-0.367529 52.6263 1.27024 58.8164 4.76421 63.9869C5.09749 64.4801 6.00177 64.6424 6.51131 64.169L18.4854 52.2258C22.2342 48.4753 23.3989 42.9042 21.6155 37.9157C20.4872 34.8206 19.9413 31.5071 19.9777 28.1572Z" fill="#0C8C5E"/>
<path d="M67.4746 48.4028C63.7258 52.0805 59.0307 54.6293 53.9354 55.7581C48.8036 56.8869 43.4899 56.5592 38.5401 54.8114C38.5401 54.8114 38.5036 54.8114 38.4672 54.8114C33.481 53.0272 27.9126 54.1924 24.1638 57.9065L12.1895 69.8497C11.68 70.3595 11.7528 71.197 12.3715 71.5975C17.5397 75.0567 23.7271 76.7316 29.9871 76.2947C36.6839 75.8213 42.9803 72.9447 47.7481 68.1747L47.9301 67.9927L67.4746 48.4392V48.4028Z" fill="#0C8C5E"/>
</svg>
