<svg width="385" height="84" viewBox="0 0 385 84" fill="none" xmlns="http://www.w3.org/2000/svg">
<path d="M357.453 83.7282H344.525L353.636 63.1648L335.415 22.2117H348.43L359.047 47.884C359.418 48.7814 360.69 48.7797 361.059 47.8814L371.596 22.2117H384.698L357.453 83.7282Z" fill="white"/>
<path d="M318.185 65.5944V32.6237H309.421V22.2119H318.185V16.5721C318.185 11.4241 319.746 7.37504 322.87 4.42502C325.994 1.47501 329.956 0 334.757 0C337.707 0 340.223 0.318139 342.305 0.954415V11.453C340.917 10.9324 339.298 10.6721 337.447 10.6721C334.844 10.6721 332.964 11.2505 331.807 12.4074C330.65 13.5064 330.071 15.3863 330.071 18.0471V22.2119H342.305V32.6237H330.071V65.5944H318.185Z" fill="white"/>
<path d="M298.788 15.0971C296.763 15.0971 294.999 14.3741 293.495 12.928C291.991 11.4241 291.239 9.63093 291.239 7.54857C291.239 5.4662 291.991 3.70198 293.495 2.2559C294.999 0.751965 296.763 0 298.788 0C300.928 0 302.721 0.751965 304.167 2.2559C305.671 3.70198 306.423 5.4662 306.423 7.54857C306.423 9.63093 305.671 11.4241 304.167 12.928C302.721 14.3741 300.928 15.0971 298.788 15.0971ZM292.888 65.5944V22.2119H304.775V65.5944H292.888Z" fill="white"/>
<path d="M272.19 65.5946V0.520752H284.077V65.5946H272.19Z" fill="white"/>
<path d="M258.761 66.1146C253.902 66.1146 249.911 64.7842 246.788 62.1234C243.722 59.4048 242.189 55.5004 242.189 50.4102V32.6233H233.426V22.2115H242.189V10.1511H254.076V22.2115H266.31V32.6233H254.076V48.0675C254.076 50.7283 254.654 52.6371 255.811 53.794C256.968 54.893 258.848 55.4425 261.451 55.4425C263.302 55.4425 264.922 55.1822 266.31 54.6616V65.1602C264.227 65.7965 261.711 66.1146 258.761 66.1146Z" fill="white"/>
<path d="M188.936 65.5948V22.2122H200.823V25.3832C200.823 25.9194 201.553 26.1565 201.908 25.7547C204.558 22.7568 208.332 21.2578 213.23 21.2578C218.436 21.2578 222.514 22.9931 225.464 26.4637C228.472 29.8765 229.976 34.4461 229.976 40.1726V65.5948H218.089V42.1682C218.089 38.9868 217.424 36.5285 216.094 34.7932C214.763 33 212.883 32.1035 210.454 32.1035C207.562 32.1035 205.219 33.1446 203.426 35.227C201.691 37.3094 200.823 40.3751 200.823 44.4241V65.5948H188.936Z" fill="white"/>
<path d="M174.137 15.0971C172.113 15.0971 170.349 14.3741 168.845 12.928C167.341 11.4241 166.589 9.63093 166.589 7.54857C166.589 5.4662 167.341 3.70198 168.845 2.2559C170.349 0.751965 172.113 0 174.137 0C176.278 0 178.071 0.751965 179.517 2.2559C181.021 3.70198 181.773 5.4662 181.773 7.54857C181.773 9.63093 181.021 11.4241 179.517 12.928C178.071 14.3741 176.278 15.0971 174.137 15.0971ZM168.237 65.5944V22.2119H180.124V65.5944H168.237Z" fill="white"/>
<path d="M148.059 65.5948V42.4285C148.059 35.5451 145.803 32.1035 141.291 32.1035C138.688 32.1035 136.606 33.0868 135.044 35.0535C133.54 37.0201 132.731 39.9412 132.615 43.8167V65.5948H120.728V42.4285C120.728 35.5451 118.472 32.1035 113.96 32.1035C111.3 32.1035 109.188 33.1446 107.626 35.227C106.065 37.3094 105.284 40.3751 105.284 44.4241V65.5948H93.397V22.2122H105.284V25.4144C105.284 25.9478 106.001 26.1828 106.351 25.7805C108.977 22.7654 112.468 21.2578 116.824 21.2578C122.547 21.2578 126.858 23.6208 129.756 28.3468C129.985 28.7196 130.548 28.7138 130.775 28.3402C132.028 26.2808 133.769 24.643 135.999 23.4269C138.544 21.9809 141.118 21.2578 143.721 21.2578C148.869 21.2578 152.86 22.9642 155.694 26.377C158.529 29.7897 159.946 34.475 159.946 40.4329V65.5948H148.059Z" fill="white"/>
<path d="M75.8434 28.5546V5.05297C75.8434 2.53102 73.7974 0.520752 71.3131 0.520752H47.8223C44.1325 0.520752 40.4792 1.25173 37.0816 2.64063C33.684 4.06608 30.5787 6.11292 27.9849 8.74452L27.8022 8.92727C24.3681 12.3995 21.9204 16.7124 20.6782 21.4639C22.9067 20.8791 25.2082 20.5867 27.5098 20.5502C33.6474 20.4771 39.6755 22.4508 44.5709 26.1424C48.9914 29.4319 52.3524 33.9641 54.1791 39.1907C56.0788 44.4905 56.298 50.2654 54.8732 55.7114C59.586 54.4687 63.9335 52.0198 67.4042 48.5841L67.5869 48.4014C70.1807 45.8063 72.263 42.6995 73.6878 39.3004C75.1126 35.9012 75.8068 32.2462 75.8068 28.5546H75.8434Z" fill="#18E299"/>
<path d="M19.9777 28.1579C20.0141 20.9483 22.8893 14.0299 27.9483 8.85938L8.40378 28.4128C8.33098 28.4856 8.25816 28.522 8.18537 28.5949C3.41754 33.3285 0.542361 39.6642 0.069218 46.3641C-0.367529 52.627 1.27024 58.8171 4.76421 63.9877C5.09749 64.4809 6.00177 64.6431 6.51131 64.1697L18.4854 52.2265C22.2342 48.476 23.3989 42.9049 21.6155 37.9164C20.4872 34.8214 19.9413 31.5079 19.9777 28.1579Z" fill="#0C8C5E"/>
<path d="M67.4726 48.4031C63.7239 52.0807 59.0288 54.6296 53.9334 55.7584C48.8016 56.8871 43.4879 56.5594 38.5381 54.8116C38.5381 54.8116 38.5017 54.8116 38.4653 54.8116C33.4791 53.0274 27.9106 54.1926 24.1619 57.9067L12.1876 69.85C11.6781 70.3597 11.7508 71.1972 12.3696 71.5977C17.5377 75.0569 23.7251 76.7319 29.9852 76.2949C36.682 75.8216 42.9783 72.945 47.7462 68.175L47.9281 67.9929L67.4726 48.4395V48.4031Z" fill="#0C8C5E"/>
</svg>
